<svg xmlns="http://www.w3.org/2000/svg" width="1800" height="1050" viewBox="0 0 1800 1050">
  <defs>
    <style>
      .bg { fill:#fbfbf8; }
      .outer { fill:none; stroke:#222; stroke-width:2; }
      .panel { fill:#ffffff; stroke-width:2; rx:16; }
      .title { font-family:Arial, Helvetica, sans-serif; font-size:40px; font-weight:700; fill:#111; }
      .subtitle { font-family:Arial, Helvetica, sans-serif; font-size:22px; font-style:italic; fill:#555; }
      .h { font-family:Arial, Helvetica, sans-serif; font-size:22px; font-weight:700; }
      .t { font-family:Arial, Helvetica, sans-serif; font-size:16px; fill:#111; }
      .small { font-family:Arial, Helvetica, sans-serif; font-size:13px; fill:#111; }
      .tiny { font-family:Arial, Helvetica, sans-serif; font-size:11px; fill:#111; }
      .mono { font-family:Consolas, Menlo, monospace; font-size:14px; fill:#111; }
      .monoSmall { font-family:Consolas, Menlo, monospace; font-size:12px; fill:#111; }
      .box { fill:#fff; stroke:#555; stroke-width:1.5; rx:8; }
      .note { fill:#f7f7ff; stroke:#826bc8; stroke-width:1.5; rx:8; }
      .green { fill:#eaf7e7; stroke:#2e7d32; }
      .blue { fill:#eaf3ff; stroke:#2b6cb0; }
      .purple { fill:#f4efff; stroke:#6b46c1; }
      .pink { fill:#fff0f0; stroke:#c53030; }
      .yellow { fill:#fff7e6; stroke:#d97706; }
      .gray { fill:#f4f4f4; stroke:#777; }
      .arrow { stroke:#111; stroke-width:2; fill:none; marker-end:url(#arrow); }
      .arrowGreen { stroke:#2e7d32; stroke-width:3; fill:none; marker-end:url(#arrowGreen); }
      .dash { stroke-dasharray:6 5; }
      .center { text-anchor:middle; dominant-baseline:middle; }
      .right { text-anchor:end; }
    </style>
    <marker id="arrow" markerWidth="10" markerHeight="10" refX="8" refY="3" orient="auto" markerUnits="strokeWidth">
      <path d="M0,0 L8,3 L0,6 Z" fill="#111"/>
    </marker>
    <marker id="arrowGreen" markerWidth="10" markerHeight="10" refX="8" refY="3" orient="auto" markerUnits="strokeWidth">
      <path d="M0,0 L8,3 L0,6 Z" fill="#2e7d32"/>
    </marker>
  </defs>

  <rect class="bg" x="0" y="0" width="1800" height="1050"/>
  <rect class="outer" x="8" y="8" width="1784" height="1034" rx="28"/>
  <text class="title center" x="900" y="45">Identity Feature Transfer V3</text>
  <text class="subtitle center" x="900" y="78">attn1 output-patch identity steering with commit-based pull</text>

  <!-- Panels -->
  <rect class="panel" x="22" y="110" width="245" height="890" stroke="#8ab4f8"/>
  <rect class="panel" x="285" y="110" width="370" height="890" stroke="#b59de6"/>
  <rect class="panel" x="675" y="110" width="550" height="890" stroke="#7baaf7"/>
  <rect class="panel" x="1245" y="110" width="335" height="890" stroke="#f4b267"/>
  <rect class="panel" x="1595" y="110" width="180" height="890" stroke="#f19aa0"/>

  <!-- Headings -->
  <circle cx="60" cy="140" r="18" fill="#2b6cb0"/><text class="h center" x="60" y="140" fill="#fff">1</text><text class="h" x="88" y="146" fill="#174a8b">Inputs</text>
  <circle cx="323" cy="140" r="18" fill="#6b46c1"/><text class="h center" x="323" y="140" fill="#fff">2</text><text class="h" x="350" y="146" fill="#553c9a">Intervention point</text>
  <circle cx="713" cy="140" r="18" fill="#2b6cb0"/><text class="h center" x="713" y="140" fill="#fff">3</text><text class="h" x="742" y="146" fill="#1d5f99">Commit-based pull</text>
  <circle cx="1284" cy="140" r="18" fill="#d97706"/><text class="h center" x="1284" y="140" fill="#fff">4</text><text class="h" x="1314" y="146" fill="#c25a00">Schedules and presets</text>
  <circle cx="1632" cy="140" r="18" fill="#c53030"/><text class="h center" x="1632" y="140" fill="#fff">5</text><text class="h" x="1660" y="146" fill="#b91c1c">Effect</text>

  <!-- Section 1 Inputs -->
  <rect class="box" x="40" y="180" width="205" height="75"/>
  <text class="t" x="112" y="210" font-weight="700">model</text>
  <text class="small" x="112" y="232" fill="#174a8b">(required)</text>
  <path d="M65 216 h28 m-14 -14 v28" stroke="#8ab4f8" stroke-width="8" stroke-linecap="round"/>

  <rect class="box" x="40" y="285" width="205" height="85"/>
  <rect x="55" y="305" width="44" height="44" fill="#b7d8ff" stroke="#2b6cb0"/>
  <path d="M58 345 L70 330 L78 338 L91 318 L99 345 Z" fill="#4d7c0f"/>
  <text class="small" x="110" y="315" font-weight="700">ReferenceLatent</text>
  <text class="small" x="110" y="335">in image stream</text>
  <text class="small" x="110" y="355" fill="#174a8b">(required)</text>

  <rect x="40" y="390" width="205" height="70" rx="8" fill="#eef6ff" stroke="#2b6cb0" stroke-dasharray="6 4"/>
  <text class="small center" x="142" y="413" fill="#174a8b">ReferenceLatent must</text>
  <text class="small center" x="142" y="433" fill="#174a8b">already be in the</text>
  <text class="small center" x="142" y="453" fill="#174a8b">image stream.</text>

  <rect class="box" x="40" y="500" width="205" height="75"/>
  <rect x="55" y="515" width="48" height="48" fill="#ffe2e2" stroke="#c53030"/>
  <circle cx="79" cy="539" r="17" fill="none" stroke="#c53030" stroke-width="3"/>
  <path d="M70 535 q9 -14 18 0" stroke="#c53030" fill="none" stroke-width="2"/>
  <text class="small" x="115" y="528" font-weight="700">reference image</text>
  <text class="small" x="115" y="550" fill="#174a8b">(required)</text>

  <rect class="box" x="40" y="610" width="205" height="105"/>
  <rect x="55" y="625" width="48" height="55" fill="#111"/>
  <path d="M80 635 C63 635,63 675,80 675 C98 675,98 635,80 635 Z" fill="#fff"/>
  <text class="small" x="115" y="642" font-weight="700">subject_mask</text>
  <text class="small" x="115" y="664">(optional)</text>
  <text class="tiny" x="55" y="700">1 = subject, 0 = background</text>

  <rect class="blue" x="55" y="795" width="175" height="115" rx="10"/>
  <polygon points="92,823 114,835 114,860 92,872 70,860 70,835" fill="#8ab4f8" stroke="#2b6cb0" stroke-width="3"/>
  <text class="t center" x="142" y="828" font-weight="700">FLUX.2</text>
  <text class="small center" x="142" y="853" font-weight="700">model clone</text>
  <text class="small center" x="142" y="890">+ attn1 output patch</text>
  <path class="arrow" d="M245 218 H260 V852 H233"/>
  <path class="arrow" d="M245 328 H260"/>
  <path class="arrow" d="M245 538 H260 V852 H233"/>
  <path class="arrow" d="M142 715 V790"/>

  <!-- Section 2 Intervention -->
  <text class="t center" x="470" y="185" font-weight="700">attn1 output at active block</text>
  <text class="small center" x="470" y="210">(token sequence)</text>
  <text class="t center" x="470" y="250">attn[:, txt_end : total_seq]</text>

  <!-- token strip -->
  <rect x="315" y="290" width="70" height="70" fill="#eaf3ff" stroke="#2b6cb0"/>
  <rect x="385" y="290" width="145" height="70" fill="#eaf7e7" stroke="#2e7d32" stroke-width="3"/>
  <rect x="530" y="290" width="95" height="70" fill="#fff0f0" stroke="#c53030"/>
  <text class="small center" x="350" y="325">text<tspan x="350" dy="16">tokens</tspan></text>
  <text class="small center" x="457" y="318">generated<tspan x="457" dy="16">image tokens</tspan></text>
  <text class="small center" x="578" y="318">reference<tspan x="578" dy="16">image tokens</tspan></text>
  <text class="t" x="295" y="330">...</text><text class="t" x="632" y="330">...</text>

  <!-- boundaries -->
  <path class="arrow" d="M315 405 V365"/><text class="tiny center" x="315" y="425">txt_end</text>
  <path class="arrow" d="M385 405 V365"/><text class="tiny center" x="385" y="425">gen_start</text>
  <path class="arrow" d="M530 405 V365"/><text class="tiny center" x="530" y="425">gen_end</text>
  <path class="arrow" d="M578 405 V365"/><text class="tiny center" x="578" y="425">ref_start</text>
  <path class="arrow" d="M625 405 V365"/><text class="tiny center" x="625" y="425">ref_end</text>

  <rect x="345" y="470" width="250" height="70" rx="8" fill="#f2fff2" stroke="#2e7d32" stroke-width="2" stroke-dasharray="6 5"/>
  <text class="t center" x="470" y="497" fill="#14532d" font-weight="700">Only this slice is updated</text>
  <text class="small center" x="470" y="520" fill="#14532d">(generated image tokens)</text>
  <path class="arrowGreen dash" d="M420 470 L395 365"/>
  <path class="arrowGreen dash" d="M520 470 L525 365"/>

  <rect class="purple" x="365" y="605" width="210" height="80" rx="9"/>
  <text class="t center" x="470" y="635" fill="#553c9a" font-weight="700">intervention point:</text>
  <text class="t center" x="470" y="660" fill="#553c9a" font-weight="700">attn1 output patch</text>
  <path class="arrow" d="M470 600 V545"/>

  <rect class="note" x="325" y="720" width="290" height="70"/>
  <text class="small" x="340" y="748">reference_index selects one reference</text>
  <text class="small" x="340" y="770">slice when multiple references are present.</text>
  <rect class="note" x="325" y="815" width="290" height="90"/>
  <text class="small" x="340" y="845">Only generated image tokens are rewritten.</text>
  <text class="small" x="340" y="867">Text tokens and reference tokens stay</text>
  <text class="small" x="340" y="889">untouched.</text>

  <!-- Section 3 Commit pull -->
  <rect class="green" x="700" y="180" width="150" height="90" rx="8"/>
  <text class="small center" x="775" y="208" font-weight="700">generated token</text>
  <text class="small center" x="775" y="228" font-weight="700">features</text>
  <text class="small center" x="775" y="250">(gen_features)</text>
  <rect class="pink" x="865" y="180" width="150" height="90" rx="8"/>
  <text class="small center" x="940" y="208" font-weight="700">selected reference</text>
  <text class="small center" x="940" y="228" font-weight="700">token features</text>
  <text class="small center" x="940" y="250">(ref_features)</text>
  <rect class="yellow" x="1030" y="180" width="165" height="120" rx="8"/>
  <text class="small center" x="1112" y="205" font-weight="700">subject_mask pooled</text>
  <text class="small center" x="1112" y="225" font-weight="700">to reference token grid</text>
  <g transform="translate(1073,238)">
    <rect x="0" y="0" width="20" height="20" fill="#222"/><rect x="20" y="0" width="20" height="20" fill="#777"/><rect x="40" y="0" width="20" height="20" fill="#ddd"/><rect x="60" y="0" width="20" height="20" fill="#fff"/>
    <rect x="0" y="20" width="20" height="20" fill="#aaa"/><rect x="20" y="20" width="20" height="20" fill="#eee"/><rect x="40" y="20" width="20" height="20" fill="#fff"/><rect x="60" y="20" width="20" height="20" fill="#eee"/>
    <rect x="0" y="0" width="80" height="40" fill="none" stroke="#555"/>
    <path d="M20 0 V40 M40 0 V40 M60 0 V40 M0 20 H80" stroke="#555"/>
  </g>
  <text class="tiny center" x="1112" y="287">keep pooled value &gt;= mask_threshold</text>
  <path class="arrow" d="M1030 225 H1018"/>
  <path class="arrow" d="M775 270 V315 H900 V330"/>
  <path class="arrow" d="M940 270 V315 H900 V330"/>

  <rect class="blue" x="700" y="330" width="405" height="270" rx="10"/>
  <text class="small center" x="902" y="355" fill="#1d5f99" font-weight="700">centered cosine similarity</text>
  <text class="monoSmall center" x="902" y="380">sim = normalize(gen - mean(gen)) x normalize(ref - mean(ref))^T</text>

  <!-- heatmap grid -->
  <g transform="translate(735,405)">
    <rect x="0" y="0" width="150" height="150" fill="#eaf3ff" stroke="#2b6cb0"/>
    <!-- manual heat squares -->
    <rect x="0" y="0" width="25" height="25" fill="#1d4ed8"/><rect x="25" y="0" width="25" height="25" fill="#2563eb"/><rect x="50" y="0" width="25" height="25" fill="#bfdbfe"/><rect x="75" y="0" width="25" height="25" fill="#dbeafe"/><rect x="100" y="0" width="25" height="25" fill="#60a5fa"/><rect x="125" y="0" width="25" height="25" fill="#93c5fd"/>
    <rect x="0" y="25" width="25" height="25" fill="#60a5fa"/><rect x="25" y="25" width="25" height="25" fill="#1e40af"/><rect x="50" y="25" width="25" height="25" fill="#2563eb"/><rect x="75" y="25" width="25" height="25" fill="#dbeafe"/><rect x="100" y="25" width="25" height="25" fill="#bfdbfe"/><rect x="125" y="25" width="25" height="25" fill="#e0f2fe"/>
    <rect x="0" y="50" width="25" height="25" fill="#bfdbfe"/><rect x="25" y="50" width="25" height="25" fill="#60a5fa"/><rect x="50" y="50" width="25" height="25" fill="#1d4ed8"/><rect x="75" y="50" width="25" height="25" fill="#60a5fa"/><rect x="100" y="50" width="25" height="25" fill="#dbeafe"/><rect x="125" y="50" width="25" height="25" fill="#bfdbfe"/>
    <rect x="0" y="75" width="25" height="25" fill="#dbeafe"/><rect x="25" y="75" width="25" height="25" fill="#bfdbfe"/><rect x="50" y="75" width="25" height="25" fill="#60a5fa"/><rect x="75" y="75" width="25" height="25" fill="#1d4ed8"/><rect x="100" y="75" width="25" height="25" fill="#93c5fd"/><rect x="125" y="75" width="25" height="25" fill="#e0f2fe"/>
    <rect x="0" y="100" width="25" height="25" fill="#e0f2fe"/><rect x="25" y="100" width="25" height="25" fill="#dbeafe"/><rect x="50" y="100" width="25" height="25" fill="#93c5fd"/><rect x="75" y="100" width="25" height="25" fill="#60a5fa"/><rect x="100" y="100" width="25" height="25" fill="#1e40af"/><rect x="125" y="100" width="25" height="25" fill="#60a5fa"/>
    <rect x="0" y="125" width="25" height="25" fill="#bfdbfe"/><rect x="25" y="125" width="25" height="25" fill="#e0f2fe"/><rect x="50" y="125" width="25" height="25" fill="#dbeafe"/><rect x="75" y="125" width="25" height="25" fill="#bfdbfe"/><rect x="100" y="125" width="25" height="25" fill="#60a5fa"/><rect x="125" y="125" width="25" height="25" fill="#1d4ed8"/>
    <path d="M25 0 V150 M50 0 V150 M75 0 V150 M100 0 V150 M125 0 V150 M0 25 H150 M0 50 H150 M0 75 H150 M0 100 H150 M0 125 H150" stroke="#fff" stroke-width="1"/>
  </g>
  <text class="tiny" x="720" y="485" transform="rotate(-90 720,485)">generation tokens (gen)</text>
  <text class="tiny center" x="810" y="575">reference tokens, selected slice</text>

  <rect x="910" y="405" width="125" height="115" rx="8" fill="#f8fbff" stroke="#2b6cb0" stroke-dasharray="5 4"/>
  <text class="tiny center" x="972" y="430">If no mask and</text>
  <text class="tiny center" x="972" y="448">gen_count == ref_count,</text>
  <text class="tiny center" x="972" y="466">diagonal self-match</text>
  <text class="tiny center" x="972" y="484">is suppressed.</text>

  <rect class="blue" x="1050" y="405" width="140" height="130" rx="8"/>
  <text class="small center" x="1120" y="432" fill="#1d5f99" font-weight="700">top-2 matches</text>
  <text class="small center" x="1120" y="452" fill="#1d5f99">per gen token</text>
  <text class="small" x="1080" y="480">best_sim</text>
  <text class="small" x="1080" y="503">best_idx</text>
  <text class="small" x="1080" y="526">second_sim</text>
  <circle cx="1067" cy="476" r="3" fill="#111"/><circle cx="1067" cy="499" r="3" fill="#111"/><circle cx="1067" cy="522" r="3" fill="#111"/>
  <path class="arrow" d="M1035 462 H1048"/>

  <rect class="pink" x="700" y="620" width="365" height="150" rx="9"/>
  <text class="small" x="720" y="648" fill="#b91c1c" font-weight="700">commit logic</text>
  <text class="monoSmall" x="720" y="674">margin = best_sim - second_sim</text>
  <text class="monoSmall" x="720" y="696">valid if best_sim &gt;= sim_floor</text>
  <text class="monoSmall" x="720" y="718">commit_hits increments when best_idx repeats</text>
  <text class="monoSmall" x="720" y="740">committed if hits &gt;= commit_confirm</text>
  <text class="monoSmall" x="720" y="760">and margin &gt;= commit_margin</text>
  <path class="arrow" d="M1120 535 V580 H920 V618"/>

  <ellipse cx="1145" cy="675" rx="58" ry="18" fill="#fff0f0" stroke="#c53030"/>
  <rect x="1087" y="675" width="116" height="64" fill="#fff0f0" stroke="#c53030"/>
  <ellipse cx="1145" cy="739" rx="58" ry="18" fill="#fff0f0" stroke="#c53030"/>
  <text class="small center" x="1145" y="695">commit_assign</text>
  <text class="small center" x="1145" y="717">commit_hits</text>
  <path class="arrow" d="M1068 695 H1085"/>
  <path d="M1085 720 H1068" stroke="#111" stroke-width="2" fill="none" marker-end="url(#arrow)"/>

  <rect class="blue" x="700" y="795" width="500" height="105" rx="9"/>
  <text class="small" x="720" y="822" fill="#1d5f99" font-weight="700">weights</text>
  <text class="monoSmall" x="720" y="848">confidence = clamp((best_sim - sim_floor) / (1 - sim_floor), 0, 1)</text>
  <text class="monoSmall" x="720" y="870">margin_weight = clamp(margin / commit_margin, 0, 1)</text>
  <text class="monoSmall" x="720" y="892">anchor = commit_anchor if committed else 1.0</text>
  <path class="arrow" d="M880 770 V792"/>

  <rect class="green" x="640" y="925" width="590" height="70" rx="9"/>
  <text class="mono" x="665" y="955">delta = (best_ref - gen_features) * confidence * margin_weight * anchor * strength</text>
  <text class="mono" x="665" y="980">new_gen = gen_features + delta</text>
  <path class="arrow" d="M950 900 V922"/>
  <path class="arrowGreen" d="M640 960 C520 960 445 900 445 545"/>
  <text class="small center" x="920" y="1020" fill="#14532d" font-weight="700">only generated image tokens are steered</text>

  <!-- Section 4 schedules -->
  <text class="t center" x="1412" y="185" font-weight="700">double blocks (0-7)</text>
  <g transform="translate(1335,205)">
    <rect x="0" y="0" width="155" height="120" fill="#fff" stroke="#555"/>
    <path d="M70 0 V120 M0 30 H155 M0 60 H155 M0 90 H155" stroke="#555"/>
    <text class="small center" x="35" y="15">0-3</text><text class="small center" x="112" y="15">= 0.25</text>
    <text class="small center" x="35" y="45">4</text><text class="small center" x="112" y="45">= 0.35</text>
    <text class="small center" x="35" y="75">5</text><text class="small center" x="112" y="75">= 0.65</text>
    <text class="small center" x="35" y="105">6-7</text><text class="small center" x="112" y="105">= 0.45</text>
  </g>
  <text class="t center" x="1412" y="370" font-weight="700">single blocks (0-23)</text>
  <g transform="translate(1335,390)">
    <rect x="0" y="0" width="155" height="240" fill="#fff" stroke="#555"/>
    <path d="M70 0 V240 M0 30 H155 M0 60 H155 M0 90 H155 M0 120 H155 M0 150 H155 M0 180 H155 M0 210 H155" stroke="#555"/>
    <text class="small center" x="35" y="15">0</text><text class="small center" x="112" y="15">= 0.35</text>
    <text class="small center" x="35" y="45">1</text><text class="small center" x="112" y="45">= 0.25</text>
    <text class="small center" x="35" y="75">2-10</text><text class="small center" x="112" y="75">= 0.30</text>
    <text class="small center" x="35" y="105">11-19</text><text class="small center" x="112" y="105">= 0.25</text>
    <text class="small center" x="35" y="135">20</text><text class="small center" x="112" y="135">= 0.08</text>
    <text class="small center" x="35" y="165">21</text><text class="small center" x="112" y="165">= 0.10</text>
    <text class="small center" x="35" y="195">22</text><text class="small center" x="112" y="195">= 0.15</text>
    <text class="small center" x="35" y="225">23</text><text class="small center" x="112" y="225">= 0.20</text>
  </g>
  <text class="t center" x="1412" y="675" font-weight="700">presets</text>
  <g transform="translate(1265,700)">
    <rect x="0" y="0" width="295" height="155" fill="#fff" stroke="#d97706"/>
    <path d="M68 0 V155 M112 0 V155 M156 0 V155 M210 0 V155 M252 0 V155 M0 35 H295 M0 75 H295 M0 115 H295" stroke="#d97706"/>
    <text class="tiny center" x="34" y="18">preset</text><text class="tiny center" x="90" y="18">d_sim</text><text class="tiny center" x="134" y="18">s_sim</text><text class="tiny center" x="183" y="18">margin</text><text class="tiny center" x="231" y="18">confirm</text><text class="tiny center" x="273" y="18">anchor</text>
    <text class="tiny center" x="34" y="57">HARD</text><text class="tiny center" x="90" y="57">.001</text><text class="tiny center" x="134" y="57">.001</text><text class="tiny center" x="183" y="57">.001</text><text class="tiny center" x="231" y="57">1</text><text class="tiny center" x="273" y="57">1.0</text>
    <text class="tiny center" x="34" y="97">MIDUM</text><text class="tiny center" x="90" y="97">.020</text><text class="tiny center" x="134" y="97">.020</text><text class="tiny center" x="183" y="97">.035</text><text class="tiny center" x="231" y="97">2</text><text class="tiny center" x="273" y="97">.50</text>
    <text class="tiny center" x="34" y="137">SOFT</text><text class="tiny center" x="90" y="137">.020</text><text class="tiny center" x="134" y="137">.020</text><text class="tiny center" x="183" y="137">.050</text><text class="tiny center" x="231" y="137">2</text><text class="tiny center" x="273" y="137">.55</text>
  </g>
  <rect class="gray" x="1268" y="885" width="288" height="45" rx="8"/>
  <text class="tiny center" x="1412" y="908">Any preset except custom overrides</text>
  <text class="tiny center" x="1412" y="925">manual schedule and commit settings.</text>

  <!-- Section 5 Effect no photos -->
  <text class="t center" x="1685" y="190" font-weight="700">without V3</text>
  <rect x="1625" y="220" width="120" height="120" rx="8" fill="#f4f4f4" stroke="#555"/>
  <g transform="translate(1640,235)">
    <circle cx="45" cy="35" r="23" fill="#ddd" stroke="#777"/>
    <rect x="25" y="60" width="40" height="30" rx="6" fill="#ddd" stroke="#777"/>
    <path d="M15 95 C35 80,55 112,85 85" fill="none" stroke="#c53030" stroke-width="4"/>
    <path d="M20 20 C45 0,60 10,75 30" fill="none" stroke="#777" stroke-width="2"/>
  </g>
  <text class="small center" x="1685" y="370">prompt follows, but</text>
  <text class="small center" x="1685" y="390">identity may weaken</text>
  <text class="small center" x="1685" y="410">or slip</text>

  <path class="arrow" d="M1685 435 V485"/>
  <rect class="pink" x="1615" y="500" width="140" height="75" rx="9"/>
  <text class="t center" x="1685" y="527" fill="#b91c1c" font-weight="700">Identity Feature</text>
  <text class="t center" x="1685" y="552" fill="#b91c1c" font-weight="700">Transfer V3</text>
  <path class="arrow" d="M1685 580 V635"/>

  <text class="t center" x="1685" y="665" font-weight="700">with V3</text>
  <rect x="1625" y="690" width="120" height="120" rx="8" fill="#f2fff2" stroke="#2e7d32"/>
  <g transform="translate(1640,705)">
    <circle cx="45" cy="35" r="23" fill="#d9f5d6" stroke="#2e7d32"/>
    <rect x="25" y="60" width="40" height="30" rx="6" fill="#d9f5d6" stroke="#2e7d32"/>
    <path d="M15 95 C35 88,58 88,85 85" fill="none" stroke="#2e7d32" stroke-width="4"/>
    <path d="M20 20 C45 10,60 12,75 30" fill="none" stroke="#2e7d32" stroke-width="2"/>
  </g>
  <text class="small center" x="1685" y="842">identity preserved</text>
  <text class="small center" x="1685" y="862">through stable matched</text>
  <text class="small center" x="1685" y="882">feature pull</text>
</svg>
